# This file uses centimeters as units for non-parametric coordinates.

v 0.218508 -0.695419 -0.672499
v -0.572061 -0.695419 -0.415627
v -0.572061 -0.695419 0.415627
v 0.218508 -0.695419 0.672499
v 0.707107 -0.695419 0.000000
v 0.309017 0.000000 -0.951057
v -0.809017 0.000000 -0.587785
v -0.809017 0.000000 0.587785
v 0.309017 0.000000 0.951057
v 1.000000 0.000000 0.000000
v 0.218508 0.707107 -0.672499
v -0.572061 0.707107 -0.415627
v -0.572061 0.707107 0.415627
v 0.218508 0.707107 0.672499
v 0.707107 0.707107 0.000000
v 0.000000 -0.922234 0.000000
v 0.000000 0.505559 0.000000
vt 0.000000 0.250000
vt 0.200000 0.250000
vt 0.400000 0.250000
vt 0.600000 0.250000
vt 0.800000 0.250000
vt 1.000000 0.250000
vt 0.000000 0.500000
vt 0.200000 0.500000
vt 0.400000 0.500000
vt 0.600000 0.500000
vt 0.800000 0.500000
vt 1.000000 0.500000
vt 0.000000 0.750000
vt 0.200000 0.750000
vt 0.400000 0.750000
vt 0.600000 0.750000
vt 0.800000 0.750000
vt 1.000000 0.750000
vt 0.100000 0.000000
vt 0.300000 0.000000
vt 0.500000 0.000000
vt 0.700000 0.000000
vt 0.900000 0.000000
vt 0.100000 1.000000
vt 0.300000 1.000000
vt 0.500000 1.000000
vt 0.700000 1.000000
vt 0.900000 1.000000
vn -0.292503 -0.322529 -0.900232
vn -0.292503 -0.322529 -0.900232
vn -0.292503 -0.322529 -0.900232
vn -0.292503 -0.322529 -0.900232
vn -0.946560 -0.322529 0.000000
vn -0.946560 -0.322529 -0.000000
vn -0.946560 -0.322529 -0.000000
vn -0.946560 -0.322529 -0.000000
vn -0.292503 -0.322529 0.900232
vn -0.292503 -0.322529 0.900232
vn -0.292503 -0.322529 0.900232
vn -0.292503 -0.322529 0.900232
vn 0.765783 -0.322529 0.556374
vn 0.765783 -0.322529 0.556374
vn 0.765783 -0.322529 0.556374
vn 0.765783 -0.322529 0.556374
vn 0.765783 -0.322529 -0.556374
vn 0.765783 -0.322529 -0.556374
vn 0.765783 -0.322529 -0.556374
vn 0.765783 -0.322529 -0.556374
vn -0.293003 0.317740 -0.901771
vn -0.293003 0.317740 -0.901771
vn -0.293003 0.317740 -0.901771
vn -0.293003 0.317740 -0.901771
vn -0.948178 0.317740 -0.000000
vn -0.948178 0.317740 -0.000000
vn -0.948178 0.317740 -0.000000
vn -0.948178 0.317740 0.000000
vn -0.293003 0.317740 0.901771
vn -0.293003 0.317740 0.901771
vn -0.293003 0.317740 0.901771
vn -0.293003 0.317740 0.901771
vn 0.767092 0.317740 0.557325
vn 0.767092 0.317740 0.557325
vn 0.767092 0.317740 0.557325
vn 0.767092 0.317740 0.557325
vn 0.767092 0.317740 -0.557325
vn 0.767092 0.317740 -0.557325
vn 0.767092 0.317740 -0.557325
vn 0.767092 0.317740 -0.557325
vn -0.113895 -0.929599 -0.350534
vn -0.113895 -0.929599 -0.350534
vn -0.113895 -0.929599 -0.350534
vn -0.368573 -0.929599 0.000000
vn -0.368573 -0.929599 0.000000
vn -0.368573 -0.929599 0.000000
vn -0.113895 -0.929599 0.350534
vn -0.113895 -0.929599 0.350534
vn -0.113895 -0.929599 0.350534
vn 0.298182 -0.929599 0.216642
vn 0.298182 -0.929599 0.216642
vn 0.298182 -0.929599 0.216642
vn 0.298182 -0.929599 -0.216642
vn 0.298182 -0.929599 -0.216642
vn 0.298182 -0.929599 -0.216642
vn 0.102686 0.943174 0.316034
vn 0.102686 0.943174 0.316034
vn 0.102686 0.943174 0.316034
vn 0.332298 0.943175 0.000000
vn 0.332298 0.943174 0.000000
vn 0.332298 0.943175 0.000000
vn 0.102686 0.943174 -0.316034
vn 0.102686 0.943174 -0.316034
vn 0.102686 0.943174 -0.316034
vn -0.268835 0.943174 -0.195320
vn -0.268835 0.943174 -0.195320
vn -0.268835 0.943174 -0.195320
vn -0.268835 0.943174 0.195320
vn -0.268835 0.943174 0.195320
vn -0.268835 0.943174 0.195320
f 1/1/1 2/2/2 6/7/3
f 6/7/3 2/2/2 7/8/4
f 2/2/5 3/3/6 7/8/7
f 7/8/7 3/3/6 8/9/8
f 3/3/9 4/4/10 8/9/11
f 8/9/11 4/4/10 9/10/12
f 4/4/13 5/5/14 9/10/15
f 9/10/15 5/5/14 10/11/16
f 5/5/17 1/6/18 10/11/19
f 10/11/19 1/6/18 6/12/20
f 6/7/21 7/8/22 11/13/23
f 11/13/23 7/8/22 12/14/24
f 7/8/25 8/9/26 12/14/27
f 12/14/27 8/9/26 13/15/28
f 8/9/29 9/10/30 13/15/31
f 13/15/31 9/10/30 14/16/32
f 9/10/33 10/11/34 14/16/35
f 14/16/35 10/11/34 15/17/36
f 10/11/37 6/12/38 15/17/39
f 15/17/39 6/12/38 11/18/40
f 2/2/41 1/1/42 16/19/43
f 3/3/44 2/2/45 16/20/46
f 4/4/47 3/3/48 16/21/49
f 5/5/50 4/4/51 16/22/52
f 1/6/53 5/5/54 16/23/55
f 11/13/56 12/14/57 17/24/58
f 12/14/59 13/15/60 17/25/61
f 13/15/62 14/16/63 17/26/64
f 14/16/65 15/17/66 17/27/67
f 15/17/68 11/18/69 17/28/70
