# This file uses centimeters as units for non-parametric coordinates.

v 0.500000 0.866025 -1.000000
v -0.500000 0.866026 -1.000000
v -1.000000 0.000000 -1.000000
v -0.500000 -0.866025 -1.000000
v 0.500000 -0.866025 -1.000000
v 1.000000 -0.000000 -1.000000
v 0.500000 0.866025 1.000000
v -0.500000 0.866026 1.000000
v -1.000000 0.000000 1.000000
v -0.500000 -0.866025 1.000000
v 0.500000 -0.866025 1.000000
v 1.000000 0.000000 1.000000
v 0.000000 -0.000000 -1.000000
v 0.000000 0.000000 1.000000
v -1.212851 0.000000 -0.015088
v -0.606425 1.050359 0.056274
v 0.606425 1.050359 0.061356
v 1.212849 -0.000000 -0.004924
v 0.606424 -1.050359 0.003105
v -0.606426 -1.050359 -0.001977
vt 0.578125 0.020934
vt 0.421875 0.020934
vt 0.343750 0.156250
vt 0.421875 0.291566
vt 0.578125 0.291566
vt 0.656250 0.156250
vt 0.375000 0.312500
vt 0.416667 0.312500
vt 0.458333 0.312500
vt 0.500000 0.312500
vt 0.541667 0.312500
vt 0.583333 0.312500
vt 0.625000 0.312500
vt 0.375000 0.688440
vt 0.416667 0.688440
vt 0.458333 0.688440
vt 0.500000 0.688440
vt 0.541667 0.688440
vt 0.583333 0.688440
vt 0.625000 0.688440
vt 0.578125 0.708434
vt 0.421875 0.708434
vt 0.343750 0.843750
vt 0.421875 0.979066
vt 0.578125 0.979066
vt 0.656250 0.843750
vt 0.500000 0.150000
vt 0.500000 0.837500
vt 0.458333 0.498895
vt 0.416667 0.509955
vt 0.625000 0.510742
vt 0.375000 0.510742
vt 0.583333 0.500470
vt 0.541667 0.501714
vt 0.500000 0.500927
vn 0.000206 0.999961 -0.008862
vn 0.000421 0.985186 -0.171486
vn -0.000188 0.999977 0.006810
vn 0.000000 0.985112 -0.171915
vn -0.864800 0.502114 -0.001712
vn -0.849160 0.497557 -0.177100
vn -0.867196 0.497966 0.000992
vn -0.851245 0.491467 -0.183964
vn -0.865757 -0.500418 -0.006889
vn -0.866255 -0.499551 0.007186
vn -0.850855 -0.492626 -0.182661
vn -0.851245 -0.491466 -0.183964
vn 0.000197 -0.999969 -0.007843
vn -0.000197 -0.999969 0.007823
vn 0.000458 -0.983458 -0.181135
vn 0.000000 -0.983368 -0.181627
vn 0.865846 -0.500254 -0.007525
vn 0.851300 -0.492337 -0.181365
vn 0.866155 -0.499718 0.007557
vn 0.851538 -0.491636 -0.182146
vn 0.864865 0.501999 -0.002337
vn 0.867118 0.498101 0.001349
vn 0.849608 0.497216 -0.175906
vn 0.851538 0.491636 -0.182146
vn 0.000000 -0.000000 -1.000000
vn 0.000000 -0.000000 -1.000000
vn 0.000000 -0.000000 -1.000000
vn 0.000000 -0.000000 -1.000000
vn 0.000000 0.000000 -1.000000
vn 0.000000 0.000000 -1.000000
vn 0.000000 -0.000000 -1.000000
vn 0.000000 0.000000 1.000000
vn 0.000000 0.000000 1.000000
vn 0.000000 0.000000 1.000000
vn 0.000000 0.000000 1.000000
vn 0.000000 0.000000 1.000000
vn 0.000000 -0.000000 1.000000
vn 0.000000 -0.000000 1.000000
vn -0.849963 0.490727 0.191703
vn -0.854552 0.485634 0.184121
vn 0.000000 0.981257 0.192702
vn -0.000501 0.981369 0.192133
vn 0.854116 0.485857 0.185549
vn 0.849794 0.490629 0.192701
vn 0.851590 -0.491665 0.181824
vn 0.852075 -0.491110 0.181048
vn -0.000459 -0.983422 0.181333
vn 0.000000 -0.983331 0.181825
vn -0.852515 -0.490848 0.179684
vn -0.851732 -0.491748 0.180934
f 17/32/1 1/7/2 16/30/3
f 16/30/3 1/7/2 2/8/4
f 16/30/5 2/8/6 15/29/7
f 15/29/7 2/8/6 3/9/8
f 20/35/9 15/29/10 4/10/11
f 4/10/11 15/29/10 3/9/12
f 19/34/13 20/35/14 5/11/15
f 5/11/15 20/35/14 4/10/16
f 19/34/17 5/11/18 18/33/19
f 18/33/19 5/11/18 6/12/20
f 17/31/21 18/33/22 1/13/23
f 1/13/23 18/33/22 6/12/24
f 2/2/25 1/1/26 13/27/27
f 3/3/28 2/2/25 13/27/27
f 4/4/29 3/3/28 13/27/27
f 5/5/30 4/4/29 13/27/27
f 6/6/31 5/5/30 13/27/27
f 1/1/26 6/6/31 13/27/27
f 7/25/32 8/24/33 14/28/34
f 8/24/33 9/23/35 14/28/34
f 9/23/35 10/22/36 14/28/34
f 10/22/36 11/21/37 14/28/34
f 11/21/37 12/26/38 14/28/34
f 12/26/38 7/25/32 14/28/34
f 8/15/39 16/30/5 9/16/40
f 9/16/40 16/30/5 15/29/7
f 7/14/41 17/32/1 8/15/42
f 8/15/42 17/32/1 16/30/3
f 18/33/22 17/31/21 12/19/43
f 12/19/43 17/31/21 7/20/44
f 11/18/45 19/34/17 12/19/46
f 12/19/46 19/34/17 18/33/19
f 20/35/14 19/34/13 10/17/47
f 10/17/47 19/34/13 11/18/48
f 15/29/10 20/35/9 9/16/49
f 9/16/49 20/35/9 10/17/50
